<svg width="27" height="27" viewBox="0 0 27 27" fill="none" xmlns="http://www.w3.org/2000/svg">
<g id="&#240;&#159;&#166;&#134; icon &#34;menu 1&#34;">
<path id="Vector" d="M19.1661 0.975586H7.84741C2.93096 0.975586 0 3.69339 0 8.25228V18.7352C0 23.3066 2.93096 26.0244 7.84741 26.0244H19.1525C24.069 26.0244 27 23.3066 27 18.7477V8.25228C27.0135 3.69339 24.0825 0.975586 19.1661 0.975586ZM20.2601 20.0753H6.75337C6.19959 20.0753 5.74036 19.6495 5.74036 19.136C5.74036 18.6225 6.19959 18.1967 6.75337 18.1967H20.2601C20.8139 18.1967 21.2731 18.6225 21.2731 19.136C21.2731 19.6495 20.8139 20.0753 20.2601 20.0753ZM20.2601 14.4393H6.75337C6.19959 14.4393 5.74036 14.0135 5.74036 13.5C5.74036 12.9865 6.19959 12.5607 6.75337 12.5607H20.2601C20.8139 12.5607 21.2731 12.9865 21.2731 13.5C21.2731 14.0135 20.8139 14.4393 20.2601 14.4393ZM20.2601 8.80335H6.75337C6.19959 8.80335 5.74036 8.37752 5.74036 7.86402C5.74036 7.35052 6.19959 6.92469 6.75337 6.92469H20.2601C20.8139 6.92469 21.2731 7.35052 21.2731 7.86402C21.2731 8.37752 20.8139 8.80335 20.2601 8.80335Z" fill="white"/>
</g>
</svg>
